<svg height="1100" width="1100" xmlns="http://www.w3.org/2000/svg">
  <path d="M 419,960 L 418,961 L 416,961 L 415,962 L 414,962 L 412,964 L 411,964 L 409,966 L 409,967 L 407,969 L 407,971 L 406,972 L 406,979 L 407,980 L 407,981 L 408,982 L 408,983 L 414,989 L 415,989 L 416,990 L 422,990 L 423,991 L 446,991 L 448,993 L 448,994 L 449,995 L 449,996 L 450,997 L 450,998 L 451,999 L 451,1000 L 452,1001 L 452,1002 L 454,1004 L 454,1005 L 455,1006 L 455,1007 L 458,1010 L 458,1011 L 461,1014 L 461,1015 L 465,1019 L 465,1020 L 473,1028 L 474,1028 L 480,1034 L 481,1034 L 482,1035 L 483,1035 L 485,1037 L 486,1037 L 488,1039 L 489,1039 L 490,1040 L 491,1040 L 493,1042 L 494,1042 L 496,1044 L 497,1044 L 498,1045 L 500,1045 L 502,1047 L 504,1047 L 505,1048 L 507,1048 L 509,1050 L 511,1050 L 512,1051 L 515,1051 L 516,1052 L 518,1052 L 519,1053 L 521,1053 L 522,1054 L 526,1054 L 527,1055 L 532,1055 L 533,1056 L 564,1056 L 565,1055 L 570,1055 L 571,1054 L 575,1054 L 576,1053 L 579,1053 L 580,1052 L 583,1052 L 584,1051 L 587,1051 L 588,1050 L 589,1050 L 590,1049 L 591,1049 L 592,1048 L 594,1048 L 595,1047 L 596,1047 L 597,1046 L 599,1046 L 601,1044 L 602,1044 L 603,1043 L 604,1043 L 605,1042 L 606,1042 L 607,1041 L 608,1041 L 610,1039 L 611,1039 L 612,1038 L 613,1038 L 614,1037 L 615,1037 L 617,1035 L 618,1035 L 622,1031 L 623,1031 L 624,1030 L 624,1029 L 625,1028 L 626,1028 L 636,1018 L 636,1017 L 639,1014 L 639,1013 L 641,1011 L 641,1010 L 645,1006 L 645,1005 L 647,1003 L 647,1002 L 648,1001 L 648,1000 L 649,999 L 649,998 L 651,996 L 651,995 L 652,994 L 652,993 L 654,991 L 676,991 L 677,990 L 683,990 L 684,989 L 685,989 L 689,985 L 690,985 L 690,984 L 691,983 L 691,982 L 692,981 L 692,979 L 693,978 L 693,973 L 692,972 L 692,969 L 690,967 L 690,966 L 687,963 L 686,963 L 685,962 L 684,962 L 683,961 L 681,961 L 680,960 L 675,960 L 674,961 L 673,960 L 665,960 L 664,961 L 651,961 L 650,960 L 641,960 L 640,961 L 634,961 L 633,960 L 632,961 L 630,961 L 629,960 L 627,960 L 626,961 L 625,961 L 624,960 L 623,960 L 622,961 L 607,961 L 606,960 L 605,961 L 573,961 L 572,960 L 557,960 L 556,961 L 555,960 L 543,960 L 542,961 L 521,961 L 520,960 L 512,960 L 511,961 L 510,960 L 508,960 L 507,961 L 504,961 L 503,960 L 501,960 L 500,961 L 457,961 L 456,960 L 455,961 L 444,961 L 443,960 L 442,960 L 441,961 L 440,961 L 439,960 L 436,960 L 435,961 L 434,961 L 433,960 Z M 485,991 L 616,991 L 617,992 L 616,993 L 616,994 L 613,997 L 613,998 L 602,1009 L 601,1009 L 597,1013 L 596,1013 L 594,1015 L 593,1015 L 592,1016 L 591,1016 L 590,1017 L 589,1017 L 588,1018 L 587,1018 L 586,1019 L 585,1019 L 584,1020 L 583,1020 L 582,1021 L 580,1021 L 579,1022 L 576,1022 L 575,1023 L 572,1023 L 571,1024 L 563,1024 L 562,1025 L 559,1025 L 558,1026 L 545,1026 L 544,1025 L 536,1025 L 535,1024 L 530,1024 L 529,1023 L 527,1023 L 526,1022 L 522,1022 L 521,1021 L 520,1021 L 519,1020 L 516,1020 L 515,1019 L 514,1019 L 513,1018 L 512,1018 L 511,1017 L 510,1017 L 508,1015 L 507,1015 L 505,1013 L 504,1013 L 502,1011 L 501,1011 L 497,1007 L 496,1007 L 492,1003 L 491,1003 L 490,1002 L 490,1001 L 486,997 L 486,996 L 483,993 Z M 438,896 L 437,897 L 418,897 L 417,898 L 415,898 L 413,900 L 412,900 L 410,902 L 410,903 L 408,905 L 408,907 L 407,908 L 407,916 L 408,917 L 408,918 L 409,919 L 409,920 L 410,921 L 410,922 L 411,922 L 415,926 L 416,926 L 417,927 L 682,927 L 683,926 L 684,926 L 690,920 L 690,919 L 691,918 L 691,917 L 692,916 L 692,908 L 691,907 L 691,906 L 690,905 L 690,904 L 684,898 L 682,898 L 681,897 L 664,897 L 663,896 L 662,897 L 624,897 L 623,896 L 622,897 L 603,897 L 602,896 L 601,897 L 596,897 L 595,896 L 594,896 L 593,897 L 586,897 L 585,896 L 583,896 L 582,897 L 564,897 L 563,896 L 562,896 L 561,897 L 560,897 L 559,896 L 558,897 L 487,897 L 486,896 L 475,896 L 474,897 L 473,897 L 472,896 L 471,897 L 461,897 L 460,896 L 458,896 L 457,897 L 440,897 L 439,896 Z M 527,47 L 526,48 L 514,48 L 513,49 L 506,49 L 505,50 L 499,50 L 498,51 L 493,51 L 492,52 L 488,52 L 487,53 L 483,53 L 482,54 L 477,54 L 476,55 L 473,55 L 472,56 L 469,56 L 468,57 L 465,57 L 464,58 L 462,58 L 461,59 L 458,59 L 457,60 L 455,60 L 454,61 L 450,61 L 449,62 L 446,62 L 445,63 L 443,63 L 442,64 L 440,64 L 439,65 L 437,65 L 436,66 L 434,66 L 433,67 L 431,67 L 430,68 L 429,68 L 428,69 L 426,69 L 425,70 L 423,70 L 422,71 L 420,71 L 419,72 L 418,72 L 417,73 L 416,73 L 415,74 L 414,74 L 413,75 L 411,75 L 410,76 L 409,76 L 408,77 L 407,77 L 406,78 L 404,78 L 403,79 L 402,79 L 401,80 L 400,80 L 399,81 L 398,81 L 397,82 L 396,82 L 395,83 L 394,83 L 393,84 L 392,84 L 391,85 L 390,85 L 389,86 L 388,86 L 387,87 L 386,87 L 385,88 L 384,88 L 383,89 L 382,89 L 380,91 L 379,91 L 378,92 L 377,92 L 376,93 L 375,93 L 373,95 L 372,95 L 371,96 L 370,96 L 369,97 L 368,97 L 367,98 L 366,98 L 363,101 L 362,101 L 360,103 L 359,103 L 358,104 L 357,104 L 355,106 L 354,106 L 352,108 L 351,108 L 349,110 L 348,110 L 345,113 L 344,113 L 341,116 L 340,116 L 335,121 L 334,121 L 331,124 L 330,124 L 326,128 L 325,128 L 321,132 L 320,132 L 310,142 L 309,142 L 300,151 L 300,152 L 287,165 L 287,166 L 281,172 L 281,173 L 278,176 L 278,177 L 275,180 L 275,181 L 272,184 L 272,185 L 269,188 L 269,189 L 265,193 L 265,194 L 263,196 L 263,197 L 261,199 L 261,200 L 260,201 L 260,202 L 258,204 L 258,205 L 256,207 L 256,208 L 254,210 L 254,211 L 252,213 L 252,214 L 251,215 L 251,216 L 250,217 L 250,218 L 249,219 L 249,220 L 248,221 L 248,222 L 246,224 L 246,225 L 245,226 L 245,227 L 244,228 L 244,229 L 243,230 L 243,231 L 242,232 L 242,233 L 241,234 L 241,235 L 240,236 L 240,237 L 239,238 L 239,239 L 238,240 L 238,241 L 237,242 L 237,243 L 236,244 L 236,245 L 235,246 L 235,248 L 234,249 L 234,250 L 233,251 L 233,252 L 232,253 L 232,254 L 231,255 L 231,257 L 230,258 L 230,260 L 229,261 L 229,262 L 228,263 L 228,264 L 227,265 L 227,267 L 226,268 L 226,270 L 225,271 L 225,273 L 224,274 L 224,276 L 223,277 L 223,279 L 222,280 L 222,281 L 221,282 L 221,285 L 220,286 L 220,288 L 219,289 L 219,291 L 218,292 L 218,295 L 217,296 L 217,298 L 216,299 L 216,302 L 215,303 L 215,306 L 214,307 L 214,311 L 213,312 L 213,315 L 212,316 L 212,319 L 211,320 L 211,324 L 210,325 L 210,330 L 209,331 L 209,336 L 208,337 L 208,344 L 207,345 L 207,353 L 206,354 L 206,366 L 205,367 L 205,374 L 206,375 L 206,377 L 205,378 L 205,394 L 206,395 L 206,411 L 207,412 L 207,420 L 208,421 L 208,426 L 209,427 L 209,433 L 210,434 L 210,438 L 211,439 L 211,442 L 212,443 L 212,447 L 213,448 L 213,450 L 214,451 L 214,454 L 215,455 L 215,460 L 216,461 L 216,462 L 217,463 L 217,466 L 218,467 L 218,469 L 219,470 L 219,472 L 220,473 L 220,476 L 221,477 L 221,478 L 222,479 L 222,481 L 223,482 L 223,484 L 224,485 L 224,488 L 225,489 L 225,491 L 226,492 L 226,493 L 227,494 L 227,496 L 228,497 L 228,499 L 229,500 L 229,501 L 230,502 L 230,503 L 232,505 L 232,508 L 233,509 L 233,510 L 234,511 L 234,512 L 235,513 L 235,514 L 236,515 L 236,516 L 237,517 L 237,518 L 238,519 L 238,521 L 239,522 L 239,523 L 240,524 L 240,525 L 242,527 L 242,528 L 243,529 L 243,530 L 244,531 L 244,532 L 245,533 L 245,534 L 246,535 L 246,536 L 248,538 L 248,539 L 249,540 L 249,541 L 250,542 L 250,543 L 251,544 L 251,545 L 252,546 L 252,547 L 253,548 L 253,549 L 255,551 L 255,552 L 257,554 L 257,555 L 258,556 L 258,557 L 261,560 L 261,561 L 262,562 L 262,563 L 264,565 L 264,566 L 266,568 L 266,569 L 267,570 L 267,571 L 270,574 L 270,575 L 272,577 L 272,578 L 273,579 L 273,580 L 274,581 L 274,582 L 277,585 L 277,586 L 279,588 L 279,589 L 282,592 L 282,593 L 284,595 L 284,596 L 286,598 L 286,599 L 288,601 L 288,602 L 289,603 L 289,604 L 294,609 L 294,610 L 297,613 L 297,614 L 299,616 L 299,617 L 301,619 L 301,620 L 304,623 L 304,624 L 306,626 L 306,627 L 309,630 L 309,631 L 311,633 L 311,634 L 313,636 L 313,637 L 315,639 L 315,640 L 316,641 L 316,642 L 318,644 L 318,645 L 320,647 L 320,648 L 321,649 L 321,650 L 323,652 L 323,653 L 326,656 L 326,657 L 327,658 L 327,659 L 329,661 L 329,662 L 331,664 L 331,665 L 333,667 L 333,668 L 334,669 L 334,670 L 335,671 L 335,672 L 337,674 L 337,675 L 338,676 L 338,677 L 339,678 L 339,679 L 340,680 L 340,681 L 342,683 L 342,684 L 343,685 L 343,686 L 344,687 L 344,688 L 345,689 L 345,690 L 346,691 L 346,692 L 347,693 L 347,694 L 348,695 L 348,696 L 349,697 L 349,698 L 350,699 L 350,700 L 351,701 L 351,702 L 352,703 L 352,705 L 353,706 L 353,707 L 354,708 L 354,710 L 355,711 L 355,712 L 356,713 L 356,715 L 357,716 L 357,717 L 358,718 L 358,720 L 359,721 L 359,722 L 360,723 L 360,725 L 361,726 L 361,728 L 362,729 L 362,731 L 363,732 L 363,733 L 364,734 L 364,737 L 365,738 L 365,740 L 366,741 L 366,744 L 367,745 L 367,747 L 368,748 L 368,750 L 369,751 L 369,755 L 370,756 L 370,760 L 371,761 L 371,765 L 372,766 L 372,769 L 373,770 L 373,775 L 374,776 L 374,782 L 375,783 L 375,788 L 376,789 L 376,796 L 377,797 L 377,807 L 378,808 L 378,813 L 379,814 L 379,817 L 380,818 L 380,821 L 381,822 L 381,824 L 382,825 L 382,826 L 383,827 L 383,828 L 384,829 L 384,830 L 386,832 L 386,834 L 389,837 L 389,838 L 392,841 L 392,842 L 398,848 L 399,848 L 402,851 L 403,851 L 405,853 L 406,853 L 409,856 L 411,856 L 412,857 L 413,857 L 414,858 L 416,858 L 417,859 L 418,859 L 419,860 L 422,860 L 423,861 L 426,861 L 427,862 L 429,862 L 430,863 L 668,863 L 669,862 L 674,862 L 675,861 L 678,861 L 679,860 L 681,860 L 682,859 L 683,859 L 684,858 L 686,858 L 687,857 L 688,857 L 690,855 L 691,855 L 692,854 L 693,854 L 695,852 L 696,852 L 698,850 L 699,850 L 708,841 L 708,840 L 711,837 L 711,836 L 713,834 L 713,833 L 715,831 L 715,830 L 716,829 L 716,828 L 717,827 L 717,826 L 718,825 L 718,823 L 719,822 L 719,820 L 720,819 L 720,817 L 721,816 L 721,812 L 722,811 L 722,807 L 723,806 L 723,798 L 724,797 L 724,787 L 725,786 L 725,781 L 726,780 L 726,776 L 727,775 L 727,768 L 728,767 L 728,763 L 729,762 L 729,759 L 730,758 L 730,755 L 731,754 L 731,750 L 732,749 L 732,747 L 733,746 L 733,743 L 734,742 L 734,739 L 735,738 L 735,736 L 736,735 L 736,733 L 737,732 L 737,731 L 738,730 L 738,728 L 739,727 L 739,725 L 740,724 L 740,721 L 741,720 L 741,719 L 742,718 L 742,716 L 743,715 L 743,714 L 744,713 L 744,712 L 745,711 L 745,709 L 746,708 L 746,707 L 747,706 L 747,704 L 748,703 L 748,702 L 749,701 L 749,700 L 750,699 L 750,698 L 751,697 L 751,696 L 752,695 L 752,694 L 753,693 L 753,691 L 755,689 L 755,688 L 756,687 L 756,686 L 757,685 L 757,684 L 759,682 L 759,681 L 760,680 L 760,679 L 761,678 L 761,677 L 762,676 L 762,675 L 764,673 L 764,672 L 765,671 L 765,670 L 767,668 L 767,667 L 768,666 L 768,665 L 770,663 L 770,662 L 771,661 L 771,660 L 773,658 L 773,657 L 774,656 L 774,655 L 775,654 L 775,653 L 778,650 L 778,649 L 780,647 L 780,646 L 782,644 L 782,643 L 783,642 L 783,641 L 785,639 L 785,638 L 787,636 L 787,635 L 790,632 L 790,631 L 793,628 L 793,627 L 794,626 L 794,625 L 797,622 L 797,621 L 800,618 L 800,617 L 802,615 L 802,614 L 805,611 L 805,610 L 808,607 L 808,606 L 810,604 L 810,603 L 811,602 L 811,601 L 814,598 L 814,597 L 816,595 L 816,594 L 818,592 L 818,591 L 821,588 L 821,587 L 823,585 L 823,584 L 825,582 L 825,581 L 827,579 L 827,578 L 829,576 L 829,575 L 831,573 L 831,572 L 833,570 L 833,569 L 835,567 L 835,566 L 836,565 L 836,564 L 838,562 L 838,561 L 840,559 L 840,558 L 842,556 L 842,555 L 843,554 L 843,553 L 844,552 L 844,551 L 845,550 L 845,549 L 847,547 L 847,546 L 848,545 L 848,544 L 849,543 L 849,542 L 850,541 L 850,540 L 852,538 L 852,537 L 853,536 L 853,535 L 854,534 L 854,533 L 855,532 L 855,531 L 856,530 L 856,529 L 857,528 L 857,527 L 859,525 L 859,524 L 860,523 L 860,522 L 861,521 L 861,520 L 862,519 L 862,518 L 863,517 L 863,515 L 864,514 L 864,513 L 865,512 L 865,511 L 866,510 L 866,509 L 867,508 L 867,507 L 868,506 L 868,505 L 869,504 L 869,502 L 870,501 L 870,500 L 871,499 L 871,498 L 872,497 L 872,495 L 873,494 L 873,493 L 874,492 L 874,490 L 875,489 L 875,488 L 876,487 L 876,485 L 877,484 L 877,481 L 878,480 L 878,479 L 879,478 L 879,476 L 880,475 L 880,472 L 881,471 L 881,469 L 882,468 L 882,465 L 883,464 L 883,461 L 884,460 L 884,458 L 885,457 L 885,454 L 886,453 L 886,449 L 887,448 L 887,444 L 888,443 L 888,440 L 889,439 L 889,435 L 890,434 L 890,428 L 891,427 L 891,421 L 892,420 L 892,415 L 893,414 L 893,400 L 894,399 L 894,367 L 893,366 L 893,350 L 892,349 L 892,342 L 891,341 L 891,333 L 890,332 L 890,328 L 889,327 L 889,323 L 888,322 L 888,318 L 887,317 L 887,313 L 886,312 L 886,308 L 885,307 L 885,304 L 884,303 L 884,301 L 883,300 L 883,296 L 882,295 L 882,293 L 881,292 L 881,290 L 880,289 L 880,287 L 879,286 L 879,283 L 878,282 L 878,280 L 877,279 L 877,277 L 876,276 L 876,274 L 875,273 L 875,271 L 874,270 L 874,269 L 873,268 L 873,266 L 872,265 L 872,263 L 871,262 L 871,260 L 870,259 L 870,257 L 869,256 L 869,255 L 868,254 L 868,253 L 867,252 L 867,251 L 866,250 L 866,248 L 865,247 L 865,246 L 864,245 L 864,244 L 863,243 L 863,242 L 862,241 L 862,240 L 861,239 L 861,238 L 860,237 L 860,236 L 859,235 L 859,234 L 858,233 L 858,232 L 857,231 L 857,230 L 856,229 L 856,228 L 855,227 L 855,226 L 853,224 L 853,223 L 852,222 L 852,221 L 850,219 L 850,218 L 849,217 L 849,216 L 847,214 L 847,213 L 846,212 L 846,211 L 845,210 L 845,209 L 843,207 L 843,206 L 841,204 L 841,203 L 840,202 L 840,201 L 838,199 L 838,198 L 836,196 L 836,195 L 832,191 L 832,190 L 831,189 L 831,188 L 829,186 L 829,185 L 825,181 L 825,180 L 821,176 L 821,175 L 816,170 L 816,169 L 813,166 L 813,165 L 803,155 L 803,154 L 802,153 L 801,153 L 800,152 L 800,151 L 793,144 L 792,144 L 780,132 L 779,132 L 774,127 L 773,127 L 769,123 L 768,123 L 765,120 L 764,120 L 760,116 L 759,116 L 756,113 L 755,113 L 752,110 L 751,110 L 749,108 L 748,108 L 747,107 L 746,107 L 744,105 L 743,105 L 741,103 L 740,103 L 738,101 L 737,101 L 735,99 L 734,99 L 732,97 L 731,97 L 729,95 L 728,95 L 727,94 L 726,94 L 725,93 L 724,93 L 723,92 L 722,92 L 721,91 L 720,91 L 719,90 L 718,90 L 716,88 L 715,88 L 714,87 L 713,87 L 711,85 L 710,85 L 709,84 L 708,84 L 707,83 L 706,83 L 705,82 L 704,82 L 703,81 L 702,81 L 701,80 L 700,80 L 699,79 L 697,79 L 696,78 L 695,78 L 694,77 L 692,77 L 691,76 L 690,76 L 689,75 L 688,75 L 687,74 L 686,74 L 685,73 L 683,73 L 682,72 L 680,72 L 679,71 L 678,71 L 677,70 L 675,70 L 674,69 L 673,69 L 672,68 L 670,68 L 669,67 L 667,67 L 666,66 L 665,66 L 664,65 L 661,65 L 660,64 L 658,64 L 657,63 L 655,63 L 654,62 L 652,62 L 651,61 L 648,61 L 647,60 L 644,60 L 643,59 L 639,59 L 638,58 L 636,58 L 635,57 L 632,57 L 631,56 L 628,56 L 627,55 L 624,55 L 623,54 L 619,54 L 618,53 L 613,53 L 612,52 L 608,52 L 607,51 L 602,51 L 601,50 L 596,50 L 595,49 L 586,49 L 585,48 L 574,48 L 573,47 Z M 441,289 L 442,288 L 443,289 L 459,289 L 460,290 L 466,290 L 467,291 L 469,291 L 470,292 L 473,292 L 474,293 L 475,293 L 476,294 L 478,294 L 479,295 L 480,295 L 481,296 L 483,296 L 484,297 L 485,297 L 486,298 L 488,298 L 489,299 L 490,299 L 492,301 L 493,301 L 495,303 L 496,303 L 498,305 L 499,305 L 501,307 L 502,307 L 509,314 L 510,314 L 512,316 L 512,317 L 518,323 L 518,324 L 521,327 L 521,328 L 522,329 L 522,330 L 524,332 L 524,333 L 525,334 L 525,335 L 526,336 L 526,337 L 527,338 L 527,340 L 528,341 L 528,342 L 529,343 L 529,345 L 530,346 L 530,348 L 531,349 L 531,350 L 532,351 L 532,354 L 533,355 L 533,357 L 534,358 L 534,365 L 535,366 L 535,370 L 536,371 L 536,373 L 537,374 L 537,375 L 541,379 L 542,379 L 544,381 L 548,381 L 549,382 L 552,382 L 553,381 L 554,381 L 555,380 L 556,380 L 557,379 L 559,379 L 561,377 L 561,376 L 562,375 L 562,374 L 563,373 L 563,372 L 564,371 L 564,367 L 565,366 L 565,361 L 566,360 L 566,356 L 567,355 L 567,352 L 568,351 L 568,349 L 569,348 L 569,346 L 570,345 L 570,344 L 571,343 L 571,341 L 572,340 L 572,339 L 573,338 L 573,337 L 574,336 L 574,335 L 576,333 L 576,332 L 577,331 L 577,330 L 578,329 L 578,328 L 580,326 L 580,325 L 583,322 L 583,321 L 596,308 L 597,308 L 600,305 L 601,305 L 603,303 L 604,303 L 605,302 L 606,302 L 607,301 L 608,301 L 609,300 L 610,300 L 612,298 L 613,298 L 614,297 L 616,297 L 617,296 L 618,296 L 619,295 L 620,295 L 621,294 L 623,294 L 624,293 L 626,293 L 627,292 L 630,292 L 631,291 L 633,291 L 634,290 L 640,290 L 641,289 L 650,289 L 651,288 L 652,288 L 653,289 L 654,288 L 655,288 L 656,289 L 666,289 L 667,290 L 669,290 L 670,291 L 675,291 L 676,292 L 679,292 L 680,293 L 682,293 L 683,294 L 684,294 L 685,295 L 688,295 L 690,297 L 691,297 L 692,298 L 693,298 L 694,299 L 695,299 L 696,300 L 697,300 L 699,302 L 700,302 L 702,304 L 703,304 L 705,306 L 706,306 L 709,309 L 710,309 L 713,312 L 714,312 L 717,315 L 717,316 L 724,323 L 724,324 L 727,327 L 727,328 L 729,330 L 729,332 L 731,334 L 731,335 L 732,336 L 732,337 L 733,338 L 733,339 L 734,340 L 734,341 L 735,342 L 735,343 L 736,344 L 736,345 L 737,346 L 737,348 L 738,349 L 738,350 L 739,351 L 739,355 L 740,356 L 740,357 L 741,358 L 741,361 L 742,362 L 742,366 L 743,367 L 743,373 L 744,374 L 744,392 L 743,393 L 743,400 L 742,401 L 742,404 L 741,405 L 741,407 L 740,408 L 740,410 L 739,411 L 739,414 L 738,415 L 738,417 L 737,418 L 737,419 L 736,420 L 736,421 L 735,422 L 735,423 L 734,424 L 734,425 L 733,426 L 733,427 L 732,428 L 732,429 L 731,430 L 731,431 L 730,432 L 730,433 L 728,435 L 728,436 L 726,438 L 726,439 L 723,442 L 723,443 L 717,449 L 717,450 L 712,455 L 712,456 L 703,465 L 702,465 L 698,469 L 698,470 L 690,478 L 689,478 L 685,482 L 685,483 L 655,513 L 654,513 L 654,514 L 626,542 L 625,542 L 624,543 L 624,544 L 622,546 L 622,547 L 621,548 L 620,548 L 553,615 L 553,616 L 550,619 L 549,619 L 548,618 L 547,618 L 545,616 L 545,615 L 508,578 L 508,577 L 507,577 L 494,564 L 494,563 L 493,563 L 490,560 L 490,559 L 487,556 L 486,556 L 479,549 L 479,548 L 473,542 L 472,542 L 467,537 L 467,536 L 452,521 L 451,521 L 449,519 L 449,518 L 426,495 L 425,495 L 424,494 L 424,493 L 420,489 L 419,489 L 416,486 L 416,485 L 384,453 L 384,452 L 378,446 L 378,445 L 375,442 L 375,441 L 373,439 L 373,438 L 370,435 L 370,434 L 368,432 L 368,430 L 367,429 L 367,428 L 366,427 L 366,426 L 365,425 L 365,424 L 364,423 L 364,422 L 363,421 L 363,420 L 362,419 L 362,417 L 361,416 L 361,414 L 360,413 L 360,412 L 359,411 L 359,408 L 358,407 L 358,404 L 357,403 L 357,400 L 356,399 L 356,390 L 355,389 L 355,375 L 356,374 L 356,369 L 357,368 L 357,363 L 358,362 L 358,359 L 359,358 L 359,355 L 360,354 L 360,352 L 361,351 L 361,349 L 362,348 L 362,347 L 363,346 L 363,344 L 364,343 L 364,342 L 365,341 L 365,340 L 366,339 L 366,338 L 367,337 L 367,336 L 369,334 L 369,333 L 370,332 L 370,331 L 373,328 L 373,327 L 376,324 L 376,323 L 379,320 L 379,319 L 382,316 L 383,316 L 383,315 L 384,314 L 385,314 L 391,308 L 392,308 L 395,305 L 396,305 L 399,302 L 400,302 L 402,300 L 403,300 L 404,299 L 405,299 L 406,298 L 407,298 L 408,297 L 409,297 L 410,296 L 411,296 L 412,295 L 413,295 L 414,294 L 416,294 L 417,293 L 418,293 L 419,292 L 423,292 L 424,291 L 426,291 L 427,290 L 430,290 L 431,289 Z M 532,78 L 533,77 L 567,77 L 568,78 L 581,78 L 582,79 L 590,79 L 591,80 L 598,80 L 599,81 L 605,81 L 606,82 L 610,82 L 611,83 L 615,83 L 616,84 L 621,84 L 622,85 L 624,85 L 625,86 L 628,86 L 629,87 L 632,87 L 633,88 L 636,88 L 637,89 L 639,89 L 640,90 L 642,90 L 643,91 L 645,91 L 646,92 L 648,92 L 649,93 L 652,93 L 653,94 L 654,94 L 655,95 L 657,95 L 658,96 L 660,96 L 661,97 L 663,97 L 664,98 L 665,98 L 666,99 L 668,99 L 669,100 L 671,100 L 672,101 L 673,101 L 674,102 L 675,102 L 676,103 L 677,103 L 678,104 L 679,104 L 680,105 L 682,105 L 683,106 L 684,106 L 685,107 L 686,107 L 687,108 L 688,108 L 689,109 L 690,109 L 691,110 L 692,110 L 693,111 L 694,111 L 695,112 L 696,112 L 697,113 L 698,113 L 699,114 L 700,114 L 701,115 L 702,115 L 703,116 L 704,116 L 706,118 L 707,118 L 708,119 L 709,119 L 710,120 L 711,120 L 713,122 L 714,122 L 716,124 L 717,124 L 719,126 L 720,126 L 721,127 L 722,127 L 724,129 L 725,129 L 727,131 L 728,131 L 731,134 L 732,134 L 734,136 L 735,136 L 738,139 L 739,139 L 741,141 L 742,141 L 746,145 L 747,145 L 750,148 L 751,148 L 755,152 L 756,152 L 765,161 L 766,161 L 776,171 L 776,172 L 781,177 L 782,177 L 786,181 L 786,182 L 792,188 L 792,189 L 796,193 L 796,194 L 799,197 L 799,198 L 802,201 L 802,202 L 805,205 L 805,206 L 808,209 L 808,210 L 810,212 L 810,213 L 812,215 L 812,216 L 814,218 L 814,219 L 816,221 L 816,222 L 818,224 L 818,225 L 820,227 L 820,228 L 821,229 L 821,230 L 822,231 L 822,232 L 824,234 L 824,235 L 825,236 L 825,237 L 826,238 L 826,239 L 827,240 L 827,241 L 828,242 L 828,243 L 829,244 L 829,245 L 830,246 L 830,247 L 832,249 L 832,251 L 834,253 L 834,254 L 835,255 L 835,257 L 836,258 L 836,259 L 837,260 L 837,261 L 838,262 L 838,263 L 839,264 L 839,266 L 840,267 L 840,268 L 841,269 L 841,270 L 842,271 L 842,273 L 843,274 L 843,275 L 844,276 L 844,278 L 845,279 L 845,280 L 846,281 L 846,283 L 847,284 L 847,286 L 848,287 L 848,289 L 849,290 L 849,292 L 850,293 L 850,295 L 851,296 L 851,298 L 852,299 L 852,302 L 853,303 L 853,305 L 854,306 L 854,309 L 855,310 L 855,315 L 856,316 L 856,319 L 857,320 L 857,324 L 858,325 L 858,329 L 859,330 L 859,335 L 860,336 L 860,342 L 861,343 L 861,351 L 862,352 L 862,366 L 863,367 L 863,402 L 862,403 L 862,417 L 861,418 L 861,423 L 860,424 L 860,429 L 859,430 L 859,434 L 858,435 L 858,439 L 857,440 L 857,442 L 856,443 L 856,447 L 855,448 L 855,451 L 854,452 L 854,454 L 853,455 L 853,458 L 852,459 L 852,461 L 851,462 L 851,464 L 850,465 L 850,467 L 849,468 L 849,470 L 848,471 L 848,473 L 847,474 L 847,475 L 846,476 L 846,478 L 845,479 L 845,480 L 844,481 L 844,483 L 843,484 L 843,486 L 842,487 L 842,488 L 841,489 L 841,490 L 840,491 L 840,493 L 839,494 L 839,495 L 838,496 L 838,497 L 837,498 L 837,500 L 836,501 L 836,502 L 835,503 L 835,504 L 834,505 L 834,506 L 833,507 L 833,508 L 832,509 L 832,510 L 831,511 L 831,512 L 830,513 L 830,514 L 829,515 L 829,516 L 828,517 L 828,518 L 827,519 L 827,520 L 826,521 L 826,522 L 824,524 L 824,525 L 823,526 L 823,527 L 821,529 L 821,530 L 820,531 L 820,532 L 819,533 L 819,534 L 818,535 L 818,536 L 816,538 L 816,539 L 814,541 L 814,542 L 812,544 L 812,545 L 810,547 L 810,548 L 809,549 L 809,550 L 807,552 L 807,553 L 805,555 L 805,556 L 803,558 L 803,559 L 802,560 L 802,561 L 799,564 L 799,565 L 797,567 L 797,568 L 795,570 L 795,571 L 793,573 L 793,574 L 790,577 L 790,578 L 788,580 L 788,581 L 786,583 L 786,584 L 784,586 L 784,587 L 781,590 L 781,591 L 778,594 L 778,595 L 777,596 L 777,597 L 774,600 L 774,601 L 771,604 L 771,605 L 769,607 L 769,608 L 766,611 L 766,612 L 764,614 L 764,615 L 762,617 L 762,618 L 759,621 L 759,622 L 757,624 L 757,625 L 755,627 L 755,628 L 753,630 L 753,631 L 752,632 L 752,633 L 749,636 L 749,637 L 747,639 L 747,640 L 745,642 L 745,643 L 744,644 L 744,645 L 743,646 L 743,647 L 742,648 L 742,649 L 740,651 L 740,652 L 739,653 L 739,654 L 738,655 L 738,656 L 736,658 L 736,659 L 734,661 L 734,662 L 733,663 L 733,664 L 732,665 L 732,666 L 731,667 L 731,668 L 730,669 L 730,670 L 729,671 L 729,672 L 728,673 L 728,674 L 727,675 L 727,676 L 726,677 L 726,678 L 725,679 L 725,680 L 724,681 L 724,682 L 723,683 L 723,685 L 722,686 L 722,687 L 721,688 L 721,689 L 720,690 L 720,691 L 719,692 L 719,693 L 718,694 L 718,695 L 717,696 L 717,698 L 716,699 L 716,700 L 715,701 L 715,703 L 714,704 L 714,705 L 713,706 L 713,707 L 712,708 L 712,710 L 711,711 L 711,714 L 710,715 L 710,716 L 709,717 L 709,719 L 708,720 L 708,722 L 707,723 L 707,725 L 706,726 L 706,729 L 705,730 L 705,732 L 704,733 L 704,736 L 703,737 L 703,739 L 702,740 L 702,742 L 701,743 L 701,747 L 700,748 L 700,751 L 699,752 L 699,755 L 698,756 L 698,760 L 697,761 L 697,766 L 696,767 L 696,771 L 695,772 L 695,779 L 694,780 L 694,786 L 693,787 L 693,797 L 692,798 L 692,803 L 691,804 L 691,808 L 690,809 L 690,811 L 689,812 L 689,814 L 688,815 L 688,816 L 686,818 L 686,819 L 683,822 L 683,823 L 679,827 L 678,827 L 676,829 L 674,829 L 672,831 L 671,831 L 670,832 L 666,832 L 665,833 L 566,833 L 565,832 L 565,648 L 574,639 L 574,638 L 575,637 L 576,637 L 577,636 L 577,635 L 578,634 L 579,634 L 590,623 L 590,622 L 615,597 L 616,597 L 618,595 L 618,594 L 667,545 L 667,544 L 676,535 L 677,535 L 690,522 L 690,521 L 731,480 L 731,479 L 732,478 L 733,478 L 741,470 L 741,469 L 746,464 L 746,463 L 750,459 L 750,458 L 752,456 L 752,455 L 754,453 L 754,452 L 756,450 L 756,449 L 757,448 L 757,447 L 758,446 L 758,445 L 759,444 L 759,443 L 761,441 L 761,440 L 762,439 L 762,438 L 763,437 L 763,436 L 764,435 L 764,433 L 765,432 L 765,431 L 766,430 L 766,428 L 767,427 L 767,425 L 768,424 L 768,422 L 769,421 L 769,418 L 770,417 L 770,415 L 771,414 L 771,411 L 772,410 L 772,407 L 773,406 L 773,399 L 774,398 L 774,394 L 775,393 L 775,376 L 774,375 L 774,366 L 773,365 L 773,359 L 772,358 L 772,354 L 771,353 L 771,350 L 770,349 L 770,347 L 769,346 L 769,343 L 768,342 L 768,340 L 767,339 L 767,337 L 766,336 L 766,335 L 765,334 L 765,332 L 764,331 L 764,330 L 763,329 L 763,328 L 762,327 L 762,325 L 760,323 L 760,321 L 758,319 L 758,318 L 756,316 L 756,315 L 754,313 L 754,312 L 752,310 L 752,309 L 750,307 L 750,306 L 742,298 L 742,297 L 732,287 L 731,287 L 728,284 L 727,284 L 725,282 L 724,282 L 722,280 L 721,280 L 718,277 L 717,277 L 715,275 L 714,275 L 712,273 L 711,273 L 710,272 L 708,272 L 707,271 L 706,271 L 705,270 L 704,270 L 703,269 L 702,269 L 701,268 L 699,268 L 698,267 L 697,267 L 696,266 L 694,266 L 693,265 L 691,265 L 690,264 L 688,264 L 687,263 L 685,263 L 684,262 L 682,262 L 681,261 L 677,261 L 676,260 L 670,260 L 669,259 L 660,259 L 659,258 L 658,259 L 657,258 L 648,258 L 647,259 L 633,259 L 632,260 L 630,260 L 629,261 L 624,261 L 623,262 L 620,262 L 619,263 L 617,263 L 616,264 L 615,264 L 614,265 L 612,265 L 611,266 L 609,266 L 608,267 L 606,267 L 605,268 L 604,268 L 603,269 L 602,269 L 601,270 L 600,270 L 599,271 L 598,271 L 597,272 L 596,272 L 595,273 L 594,273 L 593,274 L 592,274 L 590,276 L 589,276 L 587,278 L 586,278 L 584,280 L 583,280 L 581,282 L 580,282 L 576,286 L 575,286 L 558,303 L 558,304 L 555,307 L 555,308 L 553,310 L 553,311 L 552,312 L 552,313 L 551,314 L 550,314 L 549,315 L 547,313 L 547,312 L 546,311 L 546,310 L 545,309 L 545,308 L 543,306 L 543,305 L 540,302 L 540,301 L 526,287 L 525,287 L 520,282 L 519,282 L 518,281 L 517,281 L 516,280 L 515,280 L 512,277 L 511,277 L 509,275 L 508,275 L 507,274 L 506,274 L 505,273 L 504,273 L 503,272 L 502,272 L 501,271 L 500,271 L 499,270 L 498,270 L 497,269 L 495,269 L 494,268 L 493,268 L 492,267 L 491,267 L 490,266 L 488,266 L 487,265 L 484,265 L 483,264 L 481,264 L 480,263 L 478,263 L 477,262 L 475,262 L 474,261 L 470,261 L 469,260 L 462,260 L 461,259 L 450,259 L 449,258 L 443,258 L 442,259 L 430,259 L 429,260 L 424,260 L 423,261 L 420,261 L 419,262 L 415,262 L 414,263 L 412,263 L 411,264 L 409,264 L 408,265 L 406,265 L 405,266 L 403,266 L 402,267 L 401,267 L 400,268 L 398,268 L 397,269 L 396,269 L 395,270 L 393,270 L 391,272 L 390,272 L 389,273 L 388,273 L 387,274 L 386,274 L 385,275 L 384,275 L 383,276 L 382,276 L 380,278 L 379,278 L 376,281 L 375,281 L 372,284 L 371,284 L 350,305 L 350,306 L 348,308 L 348,309 L 346,311 L 346,312 L 344,314 L 344,315 L 343,316 L 343,317 L 341,319 L 341,320 L 340,321 L 340,322 L 338,324 L 338,326 L 337,327 L 337,328 L 336,329 L 336,330 L 335,331 L 335,333 L 334,334 L 334,335 L 333,336 L 333,338 L 332,339 L 332,341 L 331,342 L 331,344 L 330,345 L 330,347 L 329,348 L 329,351 L 328,352 L 328,356 L 327,357 L 327,361 L 326,362 L 326,370 L 325,371 L 325,392 L 326,393 L 326,398 L 327,399 L 327,406 L 328,407 L 328,411 L 329,412 L 329,415 L 330,416 L 330,419 L 331,420 L 331,422 L 332,423 L 332,425 L 333,426 L 333,428 L 334,429 L 334,430 L 335,431 L 335,433 L 336,434 L 336,436 L 337,437 L 337,438 L 339,440 L 339,441 L 340,442 L 340,443 L 341,444 L 341,445 L 342,446 L 342,447 L 343,448 L 343,449 L 344,450 L 344,451 L 346,453 L 346,454 L 349,457 L 349,458 L 352,461 L 352,462 L 354,464 L 354,465 L 364,475 L 364,476 L 365,476 L 367,478 L 367,479 L 370,482 L 371,482 L 375,486 L 375,487 L 377,489 L 378,489 L 382,493 L 382,494 L 386,498 L 387,498 L 391,502 L 391,503 L 409,521 L 410,521 L 412,523 L 412,524 L 435,547 L 435,548 L 436,549 L 437,549 L 446,558 L 446,559 L 450,563 L 451,563 L 457,569 L 457,570 L 462,575 L 463,575 L 464,576 L 464,577 L 465,577 L 466,578 L 466,579 L 470,583 L 471,583 L 472,584 L 472,585 L 486,599 L 487,599 L 491,603 L 491,604 L 494,607 L 495,607 L 496,608 L 496,609 L 512,625 L 512,626 L 513,626 L 529,642 L 529,643 L 531,645 L 532,645 L 533,646 L 533,647 L 534,648 L 534,833 L 533,834 L 532,834 L 531,833 L 434,833 L 433,832 L 432,832 L 431,831 L 429,831 L 428,830 L 426,830 L 425,829 L 424,829 L 422,827 L 421,827 L 415,821 L 415,820 L 412,817 L 412,816 L 411,815 L 411,813 L 410,812 L 410,810 L 409,809 L 409,806 L 408,805 L 408,800 L 407,799 L 407,792 L 406,791 L 406,779 L 405,778 L 405,773 L 404,772 L 404,768 L 403,767 L 403,763 L 402,762 L 402,758 L 401,757 L 401,753 L 400,752 L 400,750 L 399,749 L 399,747 L 398,746 L 398,741 L 397,740 L 397,737 L 396,736 L 396,734 L 395,733 L 395,731 L 394,730 L 394,728 L 393,727 L 393,725 L 392,724 L 392,722 L 391,721 L 391,719 L 390,718 L 390,715 L 389,714 L 389,713 L 388,712 L 388,710 L 387,709 L 387,708 L 386,707 L 386,705 L 385,704 L 385,703 L 384,702 L 384,700 L 383,699 L 383,698 L 382,697 L 382,695 L 381,694 L 381,693 L 380,692 L 380,691 L 379,690 L 379,689 L 378,688 L 378,687 L 377,686 L 377,684 L 376,683 L 376,682 L 375,681 L 375,680 L 374,679 L 374,678 L 373,677 L 373,676 L 372,675 L 372,674 L 371,673 L 371,672 L 370,671 L 370,670 L 368,668 L 368,667 L 367,666 L 367,665 L 366,664 L 366,663 L 365,662 L 365,661 L 364,660 L 364,659 L 362,657 L 362,656 L 360,654 L 360,652 L 358,650 L 358,649 L 357,648 L 357,647 L 355,645 L 355,644 L 353,642 L 353,641 L 352,640 L 352,639 L 351,638 L 351,637 L 348,634 L 348,633 L 346,631 L 346,630 L 345,629 L 345,628 L 343,626 L 343,625 L 341,623 L 341,622 L 337,618 L 337,617 L 336,616 L 336,615 L 335,614 L 335,613 L 333,611 L 333,610 L 331,608 L 331,607 L 328,604 L 328,603 L 326,601 L 326,600 L 324,598 L 324,597 L 321,594 L 321,593 L 317,589 L 317,588 L 315,586 L 315,585 L 313,583 L 313,582 L 312,581 L 312,580 L 309,577 L 309,576 L 306,573 L 306,572 L 303,569 L 303,568 L 301,566 L 301,565 L 300,564 L 300,563 L 298,561 L 298,560 L 296,558 L 296,557 L 293,554 L 293,553 L 291,551 L 291,550 L 289,548 L 289,547 L 288,546 L 288,545 L 286,543 L 286,542 L 284,540 L 284,539 L 282,537 L 282,536 L 281,535 L 281,534 L 279,532 L 279,531 L 278,530 L 278,529 L 277,528 L 277,527 L 275,525 L 275,524 L 273,522 L 273,520 L 272,519 L 272,518 L 271,517 L 271,516 L 270,515 L 270,514 L 269,513 L 269,512 L 268,511 L 268,510 L 267,509 L 267,508 L 266,507 L 266,506 L 265,505 L 265,504 L 264,503 L 264,502 L 263,501 L 263,500 L 262,499 L 262,498 L 261,497 L 261,496 L 260,495 L 260,494 L 259,493 L 259,491 L 258,490 L 258,489 L 257,488 L 257,486 L 256,485 L 256,484 L 255,483 L 255,481 L 254,480 L 254,479 L 253,478 L 253,476 L 252,475 L 252,473 L 251,472 L 251,469 L 250,468 L 250,466 L 249,465 L 249,463 L 248,462 L 248,459 L 247,458 L 247,456 L 246,455 L 246,452 L 245,451 L 245,448 L 244,447 L 244,445 L 243,444 L 243,441 L 242,440 L 242,436 L 241,435 L 241,431 L 240,430 L 240,425 L 239,424 L 239,420 L 238,419 L 238,410 L 237,409 L 237,396 L 236,395 L 236,368 L 237,367 L 237,353 L 238,352 L 238,345 L 239,344 L 239,337 L 240,336 L 240,333 L 241,332 L 241,328 L 242,327 L 242,322 L 243,321 L 243,317 L 244,316 L 244,313 L 245,312 L 245,310 L 246,309 L 246,306 L 247,305 L 247,302 L 248,301 L 248,298 L 249,297 L 249,296 L 250,295 L 250,292 L 251,291 L 251,289 L 252,288 L 252,286 L 253,285 L 253,283 L 254,282 L 254,280 L 255,279 L 255,278 L 256,277 L 256,275 L 257,274 L 257,273 L 258,272 L 258,270 L 259,269 L 259,268 L 260,267 L 260,266 L 261,265 L 261,263 L 262,262 L 262,260 L 263,259 L 263,258 L 264,257 L 264,256 L 265,255 L 265,254 L 266,253 L 266,252 L 267,251 L 267,250 L 268,249 L 268,248 L 269,247 L 269,246 L 270,245 L 270,244 L 271,243 L 271,242 L 273,240 L 273,239 L 274,238 L 274,237 L 275,236 L 275,235 L 276,234 L 276,233 L 278,231 L 278,230 L 279,229 L 279,228 L 281,226 L 281,225 L 282,224 L 282,223 L 285,220 L 285,219 L 287,217 L 287,216 L 289,214 L 289,213 L 291,211 L 291,210 L 294,207 L 294,206 L 297,203 L 297,202 L 299,200 L 299,199 L 302,196 L 302,195 L 308,189 L 308,188 L 316,180 L 316,179 L 337,158 L 338,158 L 343,153 L 344,153 L 349,148 L 350,148 L 353,145 L 354,145 L 357,142 L 358,142 L 361,139 L 362,139 L 365,136 L 366,136 L 368,134 L 369,134 L 373,130 L 374,130 L 376,128 L 377,128 L 378,127 L 379,127 L 381,125 L 382,125 L 383,124 L 384,124 L 386,122 L 387,122 L 389,120 L 390,120 L 391,119 L 392,119 L 393,118 L 394,118 L 395,117 L 396,117 L 397,116 L 398,116 L 399,115 L 400,115 L 402,113 L 403,113 L 404,112 L 405,112 L 406,111 L 407,111 L 408,110 L 409,110 L 410,109 L 411,109 L 412,108 L 414,108 L 416,106 L 418,106 L 419,105 L 420,105 L 421,104 L 423,104 L 424,103 L 425,103 L 426,102 L 427,102 L 428,101 L 429,101 L 430,100 L 431,100 L 432,99 L 434,99 L 435,98 L 436,98 L 437,97 L 439,97 L 440,96 L 442,96 L 443,95 L 445,95 L 446,94 L 448,94 L 449,93 L 452,93 L 453,92 L 455,92 L 456,91 L 458,91 L 459,90 L 462,90 L 463,89 L 465,89 L 466,88 L 468,88 L 469,87 L 472,87 L 473,86 L 475,86 L 476,85 L 479,85 L 480,84 L 484,84 L 485,83 L 490,83 L 491,82 L 495,82 L 496,81 L 502,81 L 503,80 L 509,80 L 510,79 L 519,79 L 520,78 Z" fill="#F7E3C1" stroke="none" fill-rule="evenodd"/>
</svg>